{
	"asset":{
		"generator":"Khronos glTF Blender I/O v4.1.63",
		"version":"2.0"
	},
	"scene":0,
	"scenes":[
		{
			"name":"Scene",
			"nodes":[
				25
			]
		}
	],
	"nodes":[
		{
			"mesh":0,
			"name":"Object_16"
		},
		{
			"children":[
				0
			],
			"name":"3DSMeshMatrix.004",
			"rotation":[
				0.544472873210907,
				0.4512224495410919,
				-0.4521646499633789,
				0.5435944199562073
			],
			"scale":[
				0.004533195868134499,
				0.004533196333795786,
				0.004533195402473211
			],
			"translation":[
				0.016563670709729195,
				-3.021489828824997e-05,
				0.0008685963111929595
			]
		},
		{
			"mesh":1,
			"name":"Object_5"
		},
		{
			"children":[
				2
			],
			"name":"3DSMeshMatrix",
			"rotation":[
				0.544472873210907,
				0.4512224495410919,
				-0.4521646499633789,
				0.5435944199562073
			],
			"scale":[
				0.004533195868134499,
				0.004533196333795786,
				0.004533195402473211
			],
			"translation":[
				0.016563670709729195,
				-3.021489828824997e-05,
				0.0008685963111929595
			]
		},
		{
			"children":[
				3
			],
			"name":"TooBig2"
		},
		{
			"mesh":2,
			"name":"Object_8"
		},
		{
			"children":[
				5
			],
			"name":"3DSMeshMatrix.001",
			"rotation":[
				0.544472873210907,
				0.4512224495410919,
				-0.4521646499633789,
				0.5435944199562073
			],
			"scale":[
				0.004533195868134499,
				0.004533196333795786,
				0.004533195402473211
			],
			"translation":[
				0.016563670709729195,
				-3.021489828824997e-05,
				0.0008685963111929595
			]
		},
		{
			"children":[
				6
			],
			"name":"TooBig3"
		},
		{
			"mesh":3,
			"name":"Object_11"
		},
		{
			"children":[
				8
			],
			"name":"3DSMeshMatrix.002",
			"rotation":[
				0.544472873210907,
				0.4512224495410919,
				-0.4521646499633789,
				0.5435944199562073
			],
			"scale":[
				0.004533195868134499,
				0.004533196333795786,
				0.004533195402473211
			],
			"translation":[
				0.016563670709729195,
				-3.021489828824997e-05,
				0.0008685963111929595
			]
		},
		{
			"children":[
				9
			],
			"name":"TooBig4"
		},
		{
			"mesh":4,
			"name":"Object_14"
		},
		{
			"children":[
				11
			],
			"name":"3DSMeshMatrix.003",
			"rotation":[
				0.544472873210907,
				0.4512224495410919,
				-0.4521646499633789,
				0.5435944199562073
			],
			"scale":[
				0.004533195868134499,
				0.004533196333795786,
				0.004533195402473211
			],
			"translation":[
				0.016563670709729195,
				-3.021489828824997e-05,
				0.0008685963111929595
			]
		},
		{
			"children":[
				12
			],
			"name":"TooBig5"
		},
		{
			"children":[
				1,
				4,
				7,
				10,
				13
			],
			"name":"Circle",
			"rotation":[
				-0.5444727540016174,
				-0.45122238993644714,
				0.4521646499633789,
				0.5435944199562073
			],
			"scale":[
				220.594970703125,
				220.5950164794922,
				220.59495544433594
			],
			"translation":[
				-0.48357322812080383,
				-3.6267926692962646,
				0
			]
		},
		{
			"mesh":5,
			"name":"Object_25"
		},
		{
			"children":[
				15
			],
			"name":"3DSMeshMatrix.007",
			"scale":[
				0.009999999776482582,
				0.009999999776482582,
				0.009999999776482582
			]
		},
		{
			"mesh":6,
			"name":"Object_20"
		},
		{
			"children":[
				17
			],
			"name":"3DSMeshMatrix.005",
			"scale":[
				0.009999999776482582,
				0.009999999776482582,
				0.009999999776482582
			]
		},
		{
			"children":[
				18
			],
			"name":"TooBig0"
		},
		{
			"mesh":7,
			"name":"Object_23"
		},
		{
			"children":[
				20
			],
			"name":"3DSMeshMatrix.006",
			"scale":[
				0.009999999776482582,
				0.009999999776482582,
				0.009999999776482582
			]
		},
		{
			"children":[
				21
			],
			"name":"TooBig1"
		},
		{
			"children":[
				16,
				19,
				22
			],
			"name":"Sphere",
			"scale":[
				100,
				100,
				100
			]
		},
		{
			"children":[
				14,
				23
			],
			"name":"saturn.3ds"
		},
		{
			"children":[
				24
			],
			"name":"Sketchfab_model",
			"rotation":[
				-0.70710688829422,
				0,
				0,
				0.7071066498756409
			],
			"scale":[
				0.006112620700150728,
				0.006112621631473303,
				0.006112621631473303
			]
		}
	],
	"materials":[
		{
			"alphaMode":"BLEND",
			"doubleSided":true,
			"name":"material",
			"pbrMetallicRoughness":{
				"baseColorTexture":{
					"index":0
				},
				"metallicFactor":0,
				"roughnessFactor":0.6000000238418579
			}
		},
		{
			"doubleSided":true,
			"name":"material_0",
			"pbrMetallicRoughness":{
				"baseColorTexture":{
					"index":1
				},
				"metallicFactor":0,
				"roughnessFactor":0.6000000238418579
			}
		}
	],
	"meshes":[
		{
			"name":"Object_4",
			"primitives":[
				{
					"attributes":{
						"POSITION":0,
						"NORMAL":1,
						"TEXCOORD_0":2
					},
					"indices":3,
					"material":0
				}
			]
		},
		{
			"name":"Object_0",
			"primitives":[
				{
					"attributes":{
						"POSITION":4,
						"NORMAL":5,
						"TEXCOORD_0":6
					},
					"indices":7,
					"material":0
				}
			]
		},
		{
			"name":"Object_1",
			"primitives":[
				{
					"attributes":{
						"POSITION":8,
						"NORMAL":9,
						"TEXCOORD_0":10
					},
					"indices":11,
					"material":0
				}
			]
		},
		{
			"name":"Object_2",
			"primitives":[
				{
					"attributes":{
						"POSITION":12,
						"NORMAL":13,
						"TEXCOORD_0":14
					},
					"indices":15,
					"material":0
				}
			]
		},
		{
			"name":"Object_3",
			"primitives":[
				{
					"attributes":{
						"POSITION":16,
						"NORMAL":17,
						"TEXCOORD_0":18
					},
					"indices":19,
					"material":0
				}
			]
		},
		{
			"name":"Object_7",
			"primitives":[
				{
					"attributes":{
						"POSITION":20,
						"NORMAL":21,
						"TEXCOORD_0":22
					},
					"indices":23,
					"material":1
				}
			]
		},
		{
			"name":"Object_5",
			"primitives":[
				{
					"attributes":{
						"POSITION":24,
						"NORMAL":25,
						"TEXCOORD_0":26
					},
					"indices":27,
					"material":1
				}
			]
		},
		{
			"name":"Object_6",
			"primitives":[
				{
					"attributes":{
						"POSITION":28,
						"NORMAL":29,
						"TEXCOORD_0":30
					},
					"indices":31,
					"material":1
				}
			]
		}
	],
	"textures":[
		{
			"sampler":0,
			"source":0
		},
		{
			"sampler":0,
			"source":1
		}
	],
	"images":[
		{
			"mimeType":"image/png",
			"name":"material_baseColor",
			"uri":"material_baseColor.png"
		},
		{
			"mimeType":"image/jpeg",
			"name":"material_0_baseColor",
			"uri":"material_0_baseColor.jpg"
		}
	],
	"accessors":[
		{
			"bufferView":0,
			"componentType":5126,
			"count":33532,
			"max":[
				466.8891906738281,
				382.0071716308594,
				0.5664942860603333
			],
			"min":[
				-467.8190612792969,
				-267.6801452636719,
				-0.6355840563774109
			],
			"type":"VEC3"
		},
		{
			"bufferView":1,
			"componentType":5126,
			"count":33532,
			"type":"VEC3"
		},
		{
			"bufferView":2,
			"componentType":5126,
			"count":33532,
			"type":"VEC2"
		},
		{
			"bufferView":3,
			"componentType":5123,
			"count":195000,
			"type":"SCALAR"
		},
		{
			"bufferView":4,
			"componentType":5126,
			"count":33574,
			"max":[
				466.8590087890625,
				260.4631042480469,
				0.8241199254989624
			],
			"min":[
				-459.87933349609375,
				-437.41290283203125,
				-0.5665355920791626
			],
			"type":"VEC3"
		},
		{
			"bufferView":5,
			"componentType":5126,
			"count":33574,
			"type":"VEC3"
		},
		{
			"bufferView":6,
			"componentType":5126,
			"count":33574,
			"type":"VEC2"
		},
		{
			"bufferView":7,
			"componentType":5123,
			"count":195000,
			"type":"SCALAR"
		},
		{
			"bufferView":8,
			"componentType":5126,
			"count":33582,
			"max":[
				385.13641357421875,
				455.7899475097656,
				0.8513762354850769
			],
			"min":[
				-174.3979949951172,
				-470.97711181640625,
				-0.8500187397003174
			],
			"type":"VEC3"
		},
		{
			"bufferView":9,
			"componentType":5126,
			"count":33582,
			"type":"VEC3"
		},
		{
			"bufferView":10,
			"componentType":5126,
			"count":33582,
			"type":"VEC2"
		},
		{
			"bufferView":11,
			"componentType":5123,
			"count":195000,
			"type":"SCALAR"
		},
		{
			"bufferView":12,
			"componentType":5126,
			"count":33591,
			"max":[
				391.0598449707031,
				463.7598571777344,
				0.7338533401489258
			],
			"min":[
				-467.84918212890625,
				-433.3331298828125,
				-0.8514171838760376
			],
			"type":"VEC3"
		},
		{
			"bufferView":13,
			"componentType":5126,
			"count":33591,
			"type":"VEC3"
		},
		{
			"bufferView":14,
			"componentType":5126,
			"count":33591,
			"type":"VEC2"
		},
		{
			"bufferView":15,
			"componentType":5123,
			"count":195000,
			"type":"SCALAR"
		},
		{
			"bufferView":16,
			"componentType":5126,
			"count":1172,
			"max":[
				-118.44651794433594,
				349.1538391113281,
				-0.4079172611236572
			],
			"min":[
				-217.27284240722656,
				243.8792266845703,
				-0.6024575233459473
			],
			"type":"VEC3"
		},
		{
			"bufferView":17,
			"componentType":5126,
			"count":1172,
			"type":"VEC3"
		},
		{
			"bufferView":18,
			"componentType":5126,
			"count":1172,
			"type":"VEC2"
		},
		{
			"bufferView":19,
			"componentType":5123,
			"count":6432,
			"type":"SCALAR"
		},
		{
			"bufferView":20,
			"componentType":5126,
			"count":33304,
			"max":[
				203.71533203125,
				203.71539306640625,
				181.9488525390625
			],
			"min":[
				-203.71559143066406,
				-4.993302822113037,
				-181.94894409179688
			],
			"type":"VEC3"
		},
		{
			"bufferView":21,
			"componentType":5126,
			"count":33304,
			"type":"VEC3"
		},
		{
			"bufferView":22,
			"componentType":5126,
			"count":33304,
			"type":"VEC2"
		},
		{
			"bufferView":23,
			"componentType":5123,
			"count":195000,
			"type":"SCALAR"
		},
		{
			"bufferView":24,
			"componentType":5126,
			"count":33147,
			"max":[
				203.71533203125,
				4.998999118804932,
				182.0026397705078
			],
			"min":[
				-203.70018005371094,
				-203.71539306640625,
				-182.0027618408203
			],
			"type":"VEC3"
		},
		{
			"bufferView":25,
			"componentType":5126,
			"count":33147,
			"type":"VEC3"
		},
		{
			"bufferView":26,
			"componentType":5126,
			"count":33147,
			"type":"VEC2"
		},
		{
			"bufferView":27,
			"componentType":5123,
			"count":195000,
			"type":"SCALAR"
		},
		{
			"bufferView":28,
			"componentType":5126,
			"count":590,
			"max":[
				-8.568167686462402e-05,
				0.00012233329471200705,
				182.0026397705078
			],
			"min":[
				-203.71559143066406,
				-4.999401092529297,
				-182.0027618408203
			],
			"type":"VEC3"
		},
		{
			"bufferView":29,
			"componentType":5126,
			"count":590,
			"type":"VEC3"
		},
		{
			"bufferView":30,
			"componentType":5126,
			"count":590,
			"type":"VEC2"
		},
		{
			"bufferView":31,
			"componentType":5123,
			"count":1680,
			"type":"SCALAR"
		}
	],
	"bufferViews":[
		{
			"buffer":0,
			"byteLength":402384,
			"byteOffset":0,
			"target":34962
		},
		{
			"buffer":0,
			"byteLength":402384,
			"byteOffset":402384,
			"target":34962
		},
		{
			"buffer":0,
			"byteLength":268256,
			"byteOffset":804768,
			"target":34962
		},
		{
			"buffer":0,
			"byteLength":390000,
			"byteOffset":1073024,
			"target":34963
		},
		{
			"buffer":0,
			"byteLength":402888,
			"byteOffset":1463024,
			"target":34962
		},
		{
			"buffer":0,
			"byteLength":402888,
			"byteOffset":1865912,
			"target":34962
		},
		{
			"buffer":0,
			"byteLength":268592,
			"byteOffset":2268800,
			"target":34962
		},
		{
			"buffer":0,
			"byteLength":390000,
			"byteOffset":2537392,
			"target":34963
		},
		{
			"buffer":0,
			"byteLength":402984,
			"byteOffset":2927392,
			"target":34962
		},
		{
			"buffer":0,
			"byteLength":402984,
			"byteOffset":3330376,
			"target":34962
		},
		{
			"buffer":0,
			"byteLength":268656,
			"byteOffset":3733360,
			"target":34962
		},
		{
			"buffer":0,
			"byteLength":390000,
			"byteOffset":4002016,
			"target":34963
		},
		{
			"buffer":0,
			"byteLength":403092,
			"byteOffset":4392016,
			"target":34962
		},
		{
			"buffer":0,
			"byteLength":403092,
			"byteOffset":4795108,
			"target":34962
		},
		{
			"buffer":0,
			"byteLength":268728,
			"byteOffset":5198200,
			"target":34962
		},
		{
			"buffer":0,
			"byteLength":390000,
			"byteOffset":5466928,
			"target":34963
		},
		{
			"buffer":0,
			"byteLength":14064,
			"byteOffset":5856928,
			"target":34962
		},
		{
			"buffer":0,
			"byteLength":14064,
			"byteOffset":5870992,
			"target":34962
		},
		{
			"buffer":0,
			"byteLength":9376,
			"byteOffset":5885056,
			"target":34962
		},
		{
			"buffer":0,
			"byteLength":12864,
			"byteOffset":5894432,
			"target":34963
		},
		{
			"buffer":0,
			"byteLength":399648,
			"byteOffset":5907296,
			"target":34962
		},
		{
			"buffer":0,
			"byteLength":399648,
			"byteOffset":6306944,
			"target":34962
		},
		{
			"buffer":0,
			"byteLength":266432,
			"byteOffset":6706592,
			"target":34962
		},
		{
			"buffer":0,
			"byteLength":390000,
			"byteOffset":6973024,
			"target":34963
		},
		{
			"buffer":0,
			"byteLength":397764,
			"byteOffset":7363024,
			"target":34962
		},
		{
			"buffer":0,
			"byteLength":397764,
			"byteOffset":7760788,
			"target":34962
		},
		{
			"buffer":0,
			"byteLength":265176,
			"byteOffset":8158552,
			"target":34962
		},
		{
			"buffer":0,
			"byteLength":390000,
			"byteOffset":8423728,
			"target":34963
		},
		{
			"buffer":0,
			"byteLength":7080,
			"byteOffset":8813728,
			"target":34962
		},
		{
			"buffer":0,
			"byteLength":7080,
			"byteOffset":8820808,
			"target":34962
		},
		{
			"buffer":0,
			"byteLength":4720,
			"byteOffset":8827888,
			"target":34962
		},
		{
			"buffer":0,
			"byteLength":3360,
			"byteOffset":8832608,
			"target":34963
		}
	],
	"samplers":[
		{
			"magFilter":9729,
			"minFilter":9987
		}
	],
	"buffers":[
		{
			"byteLength":8835968,
			"uri":"untitled.bin"
		}
	]
}
