{
	"asset":{
		"generator":"Khronos glTF Blender I/O v4.1.63",
		"version":"2.0"
	},
	"scene":0,
	"scenes":[
		{
			"name":"Scene",
			"nodes":[
				4
			]
		}
	],
	"nodes":[
		{
			"mesh":0,
			"name":"Object_4",
			"scale":[
				1.120271921157837,
				1.1202720403671265,
				1.1202720403671265
			]
		},
		{
			"children":[
				0
			],
			"name":"Sphere_2",
			"scale":[
				1.127645492553711,
				1.127645492553711,
				1.127645492553711
			]
		},
		{
			"children":[
				1
			],
			"name":"GLTF_SceneRootNode",
			"rotation":[
				0.70710688829422,
				0,
				0,
				0.7071066498756409
			]
		},
		{
			"children":[
				2
			],
			"name":"root"
		},
		{
			"children":[
				3
			],
			"name":"Sketchfab_model",
			"rotation":[
				-0.70710688829422,
				0,
				0,
				0.7071066498756409
			]
		}
	],
	"materials":[
		{
			"doubleSided":true,
			"name":"Scene_-_Root",
			"pbrMetallicRoughness":{
				"baseColorTexture":{
					"index":0
				},
				"metallicFactor":0,
				"roughnessFactor":0.4000000059604645
			}
		}
	],
	"meshes":[
		{
			"name":"Object_0",
			"primitives":[
				{
					"attributes":{
						"POSITION":0,
						"NORMAL":1,
						"TEXCOORD_0":2
					},
					"indices":3,
					"material":0
				}
			]
		}
	],
	"textures":[
		{
			"sampler":0,
			"source":0
		}
	],
	"images":[
		{
			"mimeType":"image/jpeg",
			"name":"Scene_-_Root_baseColor",
			"uri":"Scene_-_Root_baseColor.jpg"
		}
	],
	"accessors":[
		{
			"bufferView":0,
			"componentType":5126,
			"count":33708,
			"max":[
				0.9872313737869263,
				0.9975767135620117,
				0.9872314929962158
			],
			"min":[
				-0.9872310161590576,
				-0.9975767135620117,
				-0.9872310161590576
			],
			"type":"VEC3"
		},
		{
			"bufferView":1,
			"componentType":5126,
			"count":33708,
			"type":"VEC3"
		},
		{
			"bufferView":2,
			"componentType":5126,
			"count":33708,
			"type":"VEC2"
		},
		{
			"bufferView":3,
			"componentType":5123,
			"count":190464,
			"type":"SCALAR"
		}
	],
	"bufferViews":[
		{
			"buffer":0,
			"byteLength":404496,
			"byteOffset":0,
			"target":34962
		},
		{
			"buffer":0,
			"byteLength":404496,
			"byteOffset":404496,
			"target":34962
		},
		{
			"buffer":0,
			"byteLength":269664,
			"byteOffset":808992,
			"target":34962
		},
		{
			"buffer":0,
			"byteLength":380928,
			"byteOffset":1078656,
			"target":34963
		}
	],
	"samplers":[
		{
			"magFilter":9729,
			"minFilter":9987
		}
	],
	"buffers":[
		{
			"byteLength":1459584,
			"uri":"scene.bin"
		}
	]
}
