{
	"asset":{
		"generator":"Khronos glTF Blender I/O v4.1.63",
		"version":"2.0"
	},
	"extensionsUsed":[
		"KHR_materials_clearcoat"
	],
	"scene":0,
	"scenes":[
		{
			"name":"Scene",
			"nodes":[
				6
			]
		}
	],
	"nodes":[
		{
			"name":"JUPITER"
		},
		{
			"name":"Bone_Armature",
			"rotation":[
				0.7071066498756409,
				-6.548670228312403e-08,
				-4.128344599507727e-08,
				0.70710688829422
			],
			"scale":[
				1,
				0.9999999403953552,
				0.9999999403953552
			]
		},
		{
			"children":[
				1
			],
			"name":"Armature_rootJoint",
			"rotation":[
				-8.557138109210882e-09,
				1.7114272665708086e-08,
				-2.928983815672615e-16,
				1
			],
			"scale":[
				1,
				0.9999999403953552,
				0.9999999403953552
			]
		},
		{
			"mesh":0,
			"name":"JUPITER_0",
			"skin":0
		},
		{
			"children":[
				0,
				3,
				2
			],
			"name":"Armature"
		},
		{
			"children":[
				4
			],
			"name":"Root"
		},
		{
			"children":[
				5
			],
			"name":"Sketchfab_model",
			"rotation":[
				-0.70710688829422,
				0,
				0,
				0.7071066498756409
			],
			"scale":[
				0.7132357358932495,
				0.7132357954978943,
				0.7132357954978943
			]
		}
	],
	"animations":[
		{
			"channels":[
				{
					"sampler":0,
					"target":{
						"node":2,
						"path":"translation"
					}
				},
				{
					"sampler":1,
					"target":{
						"node":2,
						"path":"rotation"
					}
				},
				{
					"sampler":2,
					"target":{
						"node":2,
						"path":"scale"
					}
				},
				{
					"sampler":3,
					"target":{
						"node":1,
						"path":"translation"
					}
				},
				{
					"sampler":4,
					"target":{
						"node":1,
						"path":"rotation"
					}
				},
				{
					"sampler":5,
					"target":{
						"node":1,
						"path":"scale"
					}
				}
			],
			"name":"ArmatureAction",
			"samplers":[
				{
					"input":7,
					"interpolation":"STEP",
					"output":8
				},
				{
					"input":7,
					"interpolation":"STEP",
					"output":9
				},
				{
					"input":7,
					"interpolation":"STEP",
					"output":10
				},
				{
					"input":7,
					"interpolation":"STEP",
					"output":11
				},
				{
					"input":12,
					"interpolation":"LINEAR",
					"output":13
				},
				{
					"input":7,
					"interpolation":"STEP",
					"output":14
				}
			]
		}
	],
	"materials":[
		{
			"doubleSided":true,
			"extensions":{
				"KHR_materials_clearcoat":{
					"clearcoatFactor":0.8858612775802612,
					"clearcoatRoughnessFactor":0
				}
			},
			"name":"JUPITER",
			"pbrMetallicRoughness":{
				"baseColorTexture":{
					"index":0
				},
				"metallicFactor":0.12366615980863571,
				"roughnessFactor":0.7578125
			}
		}
	],
	"meshes":[
		{
			"name":"JUPITER",
			"primitives":[
				{
					"attributes":{
						"POSITION":0,
						"NORMAL":1,
						"TEXCOORD_0":2,
						"JOINTS_0":3,
						"WEIGHTS_0":4
					},
					"indices":5,
					"material":0
				}
			]
		}
	],
	"textures":[
		{
			"sampler":0,
			"source":0
		}
	],
	"images":[
		{
			"mimeType":"image/png",
			"name":"JUPITER_baseColor",
			"uri":"JUPITER_baseColor.png"
		}
	],
	"skins":[
		{
			"inverseBindMatrices":6,
			"joints":[
				2,
				1
			],
			"name":"Armature"
		}
	],
	"accessors":[
		{
			"bufferView":0,
			"componentType":5126,
			"count":1572,
			"max":[
				1.2353599071502686,
				1.2353599071502686,
				1.2353599071502686
			],
			"min":[
				-1.2353599071502686,
				-1.2353599071502686,
				-1.2353599071502686
			],
			"type":"VEC3"
		},
		{
			"bufferView":1,
			"componentType":5126,
			"count":1572,
			"type":"VEC3"
		},
		{
			"bufferView":2,
			"componentType":5126,
			"count":1572,
			"type":"VEC2"
		},
		{
			"bufferView":3,
			"componentType":5121,
			"count":1572,
			"type":"VEC4"
		},
		{
			"bufferView":4,
			"componentType":5126,
			"count":1572,
			"type":"VEC4"
		},
		{
			"bufferView":5,
			"componentType":5123,
			"count":9216,
			"type":"SCALAR"
		},
		{
			"bufferView":6,
			"componentType":5126,
			"count":2,
			"type":"MAT4"
		},
		{
			"bufferView":7,
			"componentType":5126,
			"count":2,
			"max":[
				500
			],
			"min":[
				0
			],
			"type":"SCALAR"
		},
		{
			"bufferView":8,
			"componentType":5126,
			"count":2,
			"type":"VEC3"
		},
		{
			"bufferView":9,
			"componentType":5126,
			"count":2,
			"type":"VEC4"
		},
		{
			"bufferView":10,
			"componentType":5126,
			"count":2,
			"type":"VEC3"
		},
		{
			"bufferView":11,
			"componentType":5126,
			"count":2,
			"type":"VEC3"
		},
		{
			"bufferView":12,
			"componentType":5126,
			"count":12001,
			"max":[
				500
			],
			"min":[
				0
			],
			"type":"SCALAR"
		},
		{
			"bufferView":13,
			"componentType":5126,
			"count":12001,
			"type":"VEC4"
		},
		{
			"bufferView":14,
			"componentType":5126,
			"count":2,
			"type":"VEC3"
		}
	],
	"bufferViews":[
		{
			"buffer":0,
			"byteLength":18864,
			"byteOffset":0,
			"target":34962
		},
		{
			"buffer":0,
			"byteLength":18864,
			"byteOffset":18864,
			"target":34962
		},
		{
			"buffer":0,
			"byteLength":12576,
			"byteOffset":37728,
			"target":34962
		},
		{
			"buffer":0,
			"byteLength":6288,
			"byteOffset":50304,
			"target":34962
		},
		{
			"buffer":0,
			"byteLength":25152,
			"byteOffset":56592,
			"target":34962
		},
		{
			"buffer":0,
			"byteLength":18432,
			"byteOffset":81744,
			"target":34963
		},
		{
			"buffer":0,
			"byteLength":128,
			"byteOffset":100176
		},
		{
			"buffer":0,
			"byteLength":8,
			"byteOffset":100304
		},
		{
			"buffer":0,
			"byteLength":24,
			"byteOffset":100312
		},
		{
			"buffer":0,
			"byteLength":32,
			"byteOffset":100336
		},
		{
			"buffer":0,
			"byteLength":24,
			"byteOffset":100368
		},
		{
			"buffer":0,
			"byteLength":24,
			"byteOffset":100392
		},
		{
			"buffer":0,
			"byteLength":48004,
			"byteOffset":100416
		},
		{
			"buffer":0,
			"byteLength":192016,
			"byteOffset":148420
		},
		{
			"buffer":0,
			"byteLength":24,
			"byteOffset":340436
		}
	],
	"samplers":[
		{
			"magFilter":9729,
			"minFilter":9987
		}
	],
	"buffers":[
		{
			"byteLength":340460,
			"uri":"scnene.bin"
		}
	]
}
