{
	"asset":{
		"generator":"Khronos glTF Blender I/O v4.1.63",
		"version":"2.0"
	},
	"scene":0,
	"scenes":[
		{
			"name":"Scene",
			"nodes":[
				2
			]
		}
	],
	"nodes":[
		{
			"mesh":0,
			"name":"Object_2",
			"scale":[
				1.2449606657028198,
				1.2449606657028198,
				1.2449606657028198
			]
		},
		{
			"children":[
				0
			],
			"name":"Geode"
		},
		{
			"children":[
				1
			],
			"name":"Sketchfab_model",
			"rotation":[
				-0.70710688829422,
				0,
				0,
				0.7071066498756409
			]
		}
	],
	"materials":[
		{
			"doubleSided":true,
			"name":"material",
			"pbrMetallicRoughness":{
				"baseColorTexture":{
					"index":0
				},
				"metallicFactor":0,
				"roughnessFactor":0
			}
		}
	],
	"meshes":[
		{
			"name":"Object_0",
			"primitives":[
				{
					"attributes":{
						"POSITION":0,
						"NORMAL":1,
						"TEXCOORD_0":2
					},
					"indices":3,
					"material":0
				}
			]
		}
	],
	"textures":[
		{
			"sampler":0,
			"source":0
		}
	],
	"images":[
		{
			"mimeType":"image/jpeg",
			"name":"material_baseColor",
			"uri":"material_baseColor.jpg"
		}
	],
	"accessors":[
		{
			"bufferView":0,
			"componentType":5126,
			"count":11474,
			"max":[
				0.9997806549072266,
				0.9995614290237427,
				1
			],
			"min":[
				-0.9997806549072266,
				-0.9995614290237427,
				-1
			],
			"type":"VEC3"
		},
		{
			"bufferView":1,
			"componentType":5126,
			"count":11474,
			"type":"VEC3"
		},
		{
			"bufferView":2,
			"componentType":5126,
			"count":11474,
			"type":"VEC2"
		},
		{
			"bufferView":3,
			"componentType":5123,
			"count":66600,
			"type":"SCALAR"
		}
	],
	"bufferViews":[
		{
			"buffer":0,
			"byteLength":137688,
			"byteOffset":0,
			"target":34962
		},
		{
			"buffer":0,
			"byteLength":137688,
			"byteOffset":137688,
			"target":34962
		},
		{
			"buffer":0,
			"byteLength":91792,
			"byteOffset":275376,
			"target":34962
		},
		{
			"buffer":0,
			"byteLength":133200,
			"byteOffset":367168,
			"target":34963
		}
	],
	"samplers":[
		{
			"magFilter":9729,
			"minFilter":9987
		}
	],
	"buffers":[
		{
			"byteLength":500368,
			"uri":"scene.bin"
		}
	]
}
