{
	"asset":{
		"generator":"Khronos glTF Blender I/O v4.1.63",
		"version":"2.0"
	},
	"scene":0,
	"scenes":[
		{
			"name":"Scene",
			"nodes":[
				4
			]
		}
	],
	"nodes":[
		{
			"mesh":0,
			"name":"Object_4"
		},
		{
			"children":[
				0
			],
			"name":"Sphere_2"
		},
		{
			"children":[
				1
			],
			"name":"GLTF_SceneRootNode",
			"rotation":[
				0.70710688829422,
				0,
				0,
				0.7071066498756409
			]
		},
		{
			"children":[
				2
			],
			"name":"root"
		},
		{
			"children":[
				3
			],
			"name":"Sketchfab_model",
			"rotation":[
				-0.70710688829422,
				0,
				0,
				0.7071066498756409
			],
			"scale":[
				1.2489999532699585,
				1.249000072479248,
				1.249000072479248
			]
		}
	],
	"materials":[
		{
			"doubleSided":true,
			"name":"Material.001",
			"normalTexture":{
				"index":0
			},
			"pbrMetallicRoughness":{
				"baseColorTexture":{
					"index":1
				},
				"metallicFactor":0,
				"metallicRoughnessTexture":{
					"index":2
				}
			}
		}
	],
	"meshes":[
		{
			"name":"Object_0",
			"primitives":[
				{
					"attributes":{
						"POSITION":0,
						"NORMAL":1,
						"TEXCOORD_0":2
					},
					"indices":3,
					"material":0
				}
			]
		}
	],
	"textures":[
		{
			"sampler":0,
			"source":0
		},
		{
			"sampler":0,
			"source":1
		},
		{
			"sampler":0,
			"source":2
		}
	],
	"images":[
		{
			"mimeType":"image/png",
			"name":"Material.001_normal",
			"uri":"Material_001_normal.png"
		},
		{
			"mimeType":"image/jpeg",
			"name":"Material.001_baseColor",
			"uri":"Material_001_baseColor.jpg"
		},
		{
			"mimeType":"image/png",
			"name":"Material.001_metallicRoughness",
			"uri":"Material_001_metallicRoughness.png"
		}
	],
	"accessors":[
		{
			"bufferView":0,
			"componentType":5126,
			"count":33700,
			"max":[
				0.9872313737869263,
				0.9975767135620117,
				0.9872314929962158
			],
			"min":[
				-0.9872310161590576,
				-0.9975767135620117,
				-0.9872310161590576
			],
			"type":"VEC3"
		},
		{
			"bufferView":1,
			"componentType":5126,
			"count":33700,
			"type":"VEC3"
		},
		{
			"bufferView":2,
			"componentType":5126,
			"count":33700,
			"type":"VEC2"
		},
		{
			"bufferView":3,
			"componentType":5123,
			"count":190464,
			"type":"SCALAR"
		}
	],
	"bufferViews":[
		{
			"buffer":0,
			"byteLength":404400,
			"byteOffset":0,
			"target":34962
		},
		{
			"buffer":0,
			"byteLength":404400,
			"byteOffset":404400,
			"target":34962
		},
		{
			"buffer":0,
			"byteLength":269600,
			"byteOffset":808800,
			"target":34962
		},
		{
			"buffer":0,
			"byteLength":380928,
			"byteOffset":1078400,
			"target":34963
		}
	],
	"samplers":[
		{
			"magFilter":9729,
			"minFilter":9987
		}
	],
	"buffers":[
		{
			"byteLength":1459328,
			"uri":"earth.bin"
		}
	]
}
